<svg xmlns="http://www.w3.org/2000/svg" viewBox="0 0 512 512">
  <rect width="512" height="512" rx="108" fill="#111827" />
  <path
    d="M132 162h154c36 0 65 29 65 65v94c0 36-29 65-65 65H132V162Z"
    fill="#ffffff"
  />
  <path
    d="M160 198h119c16 0 30 14 30 30v94c0 16-14 30-30 30H160V198Z"
    fill="#22c55e"
  />
  <path
    d="M336 224h28c24 0 44 20 44 44v53c0 24-20 44-44 44h-28V224Z"
    fill="#ffffff"
  />
  <circle cx="190" cy="386" r="30" fill="#111827" />
  <circle cx="356" cy="386" r="30" fill="#111827" />
  <path
    d="M178 238h82M178 276h64M178 314h94"
    stroke="#ffffff"
    stroke-width="22"
    stroke-linecap="round"
  />
</svg>
